<?xml version="1.0" encoding="iso-8859-1"?>
<!-- Uploaded to: SVG Repo, www.svgrepo.com, Generator: SVG Repo Mixer Tools -->
<!DOCTYPE svg PUBLIC "-//W3C//DTD SVG 1.1//EN" "http://www.w3.org/Graphics/SVG/1.1/DTD/svg11.dtd">
<svg fill="#000000" version="1.1" id="Capa_1" xmlns="http://www.w3.org/2000/svg" xmlns:xlink="http://www.w3.org/1999/xlink" 
	 width="800px" height="800px" viewBox="0 0 96.821 96.821"
	 xml:space="preserve">
<g>
	<g>
		<path d="M95.539,48.231c-1.808,1.342-3.854,2.25-6.268,2.379c-0.997,0.053-1.909-0.203-2.754-0.654
			c-0.074-0.039-0.131-0.104-0.165-0.264c0.321,0.025,0.643,0.049,0.963,0.077c2.926,0.267,5.443-0.478,7.473-2.365
			c1.295-1.205,1.745-2.696,1.812-4.312c0.055-1.341-0.366-2.54-1.348-3.59c0.083,0.212,0.167,0.423,0.247,0.635
			c0.602,1.578,0.546,3.134-0.304,4.627c-0.253,0.445-0.633,0.854-1.031,1.214c-1.054,0.955-2.29,1.665-3.728,2.132
			c-2.957,0.96-6.551-0.94-6.635-4.051c0.165,0.257,0.252,0.402,0.349,0.542c0.899,1.298,2.104,2.257,3.835,2.608
			c0.324,0.066,0.681,0.112,1.003,0.065c2.392-0.35,4.308-1.348,5.192-3.4c0.765-1.775,0.429-3.482-1.07-4.91
			c-1.34-1.276-3.365-1.237-4.659,0.032c-1.098,1.076-0.648,2.922,0.86,3.49c0.547,0.206,1.096,0.183,1.566-0.171
			c0.453-0.342,0.665-0.777,0.509-1.307c-0.108-0.368-0.423-0.592-0.822-0.611c-0.391-0.02-0.646,0.138-0.76,0.463
			c-0.02,0.052,0.014,0.118,0.031,0.232c0.104-0.07,0.183-0.107,0.236-0.163c0.166-0.172,0.393-0.247,0.558-0.079
			c0.116,0.119,0.167,0.351,0.13,0.512c-0.094,0.401-0.612,0.555-1.043,0.343c-0.369-0.182-0.563-0.602-0.457-0.989
			c0.24-0.876,1.428-1.237,2.247-0.684c0.588,0.398,0.765,0.945,0.773,1.569c0.017,1.106-0.638,1.915-1.84,2.238
			c-1.833,0.493-3.902-0.293-4.641-1.833c-0.307-0.637-0.465-1.333-0.643-2.011c-0.242-0.928-0.388-1.877-0.662-2.796
			c-0.475-1.589-1.402-2.99-2.715-4.143c-2.67-2.346-5.846-2.994-9.451-1.954c-1.598,0.461-2.953,1.24-4.047,2.366
			c-0.187,0.193-0.384,0.378-0.623,0.612c-0.259-0.075-0.53-0.142-0.793-0.231c-1.833-0.62-3.729-0.943-5.679-0.674
			c-1.161,0.16-2.293,0.491-3.43,0.772c-3.525,0.872-7.092,1.498-10.779,1.363c-0.697-0.026-1.39-0.136-2.084-0.212
			c-0.111-0.012-0.218-0.045-0.472-0.099c0.3-0.227,0.515-0.38,0.719-0.544c1.99-1.6,2.977-3.557,2.759-5.949
			c-0.131-1.433-1.293-3.164-2.589-3.937c0.11,0.203,0.155,0.332,0.239,0.436c1.148,1.413,1.201,3.704-0.764,5.311
			c-1.032,0.844-2.27,1.266-3.636,1.445c-0.406,0.053-0.817,0.076-1.227,0.093c-0.126,0.005-0.256-0.057-0.477-0.111
			c0.654-0.232,1.235-0.386,1.76-0.633c1.61-0.758,2.621-1.914,2.834-3.535c0.114-0.864-0.234-1.532-0.981-2.052
			c-0.02,0.032-0.065,0.07-0.057,0.096c0.297,0.925-0.113,1.65-0.819,2.303c-1.025,0.948-2.28,1.307-3.744,1.157
			c-1.734-0.179-3.327-0.697-4.79-1.529c-0.035-0.02-0.051-0.067-0.122-0.167c0.606,0.229,1.147,0.435,1.689,0.638
			c0.92,0.345,1.887,0.532,2.881,0.577c1.215,0.055,2.284-0.276,3.15-1.049c0.079-0.07,0.134-0.161,0.203-0.246
			c-0.057-0.026-0.084-0.049-0.099-0.044c-2.433,0.74-4.494-0.058-6.441-1.234c-0.552-0.334-1.021-0.775-1.518-1.177
			c-0.76-0.617-1.511-1.242-2.337-1.923c1.072,0.311,1.914,0.868,2.852,1.249c0.958,0.39,1.875,0.883,3.114,0.973
			c-0.259-0.141-0.415-0.206-0.544-0.3c-0.551-0.407-1.15-0.778-1.626-1.245c-0.852-0.836-1.601-1.751-2.441-2.597
			c-1.315-1.325-2.833-2.432-4.73-3.066c-0.553-0.185-1.145-0.283-1.879-0.46c1.557-0.228,2.855,0.065,4.115,0.586
			c0.029-0.041,0.058-0.082,0.086-0.122c-0.2-0.149-0.39-0.31-0.602-0.445c-1.945-1.238-4.135-1.906-6.512-2.116
			c-0.719-0.064-1.447-0.056-2.169-0.096c-0.521-0.029-1.041-0.084-1.561-0.127c0.016-1.306-0.69-2.08-1.694-1.757
			c0.587,0.31,0.966,0.704,0.906,1.315c-0.032,0.329-0.149,0.605-0.512,0.78c-0.036-0.972-0.316-1.263-1.064-1.059
			c0.127,0.156,0.312,0.289,0.347,0.447c0.046,0.211,0.04,0.472-0.069,0.653c-0.059,0.097-0.403,0.141-0.577,0.093
			c-0.816-0.224-1.512-0.048-2.175,0.383c-0.245,0.159-0.541,0.257-0.882,0.414c-0.69-1.148-1.365-2.252-2.512-3.043
			c-0.084-0.058-0.198-0.084-0.306-0.128c0.082,0.857,0.123,1.679,0.251,2.49c0.112,0.706-0.17,1.183-0.881,1.515
			c-1.199-0.989-2.109-2.139-2.703-3.485c-0.189-0.427-0.431-0.839-0.85-1.142c-0.382,0.152-0.356,0.434-0.394,0.67
			c-0.202,1.268,0.126,2.441,0.862,3.533c0.27,0.401,0.552,0.797,0.853,1.18c0.18,0.229,0.167,0.422-0.009,0.637
			c-0.689,0.843-1.366,1.694-2.064,2.531c-0.124,0.149-0.319,0.257-0.495,0.366c-0.426,0.263-0.56,0.619-0.468,1.055
			c0.027,0.125,0.057,0.249,0.091,0.373c0.271,0.982-0.009,1.854-0.738,2.609c-0.811,0.84-1.66,1.651-2.49,2.477
			c-0.383,0.381-0.787,0.749-1.137,1.152c-0.613,0.705-0.57,1.085-0.047,1.824c0.217,0.307,0.334,0.707,0.358,1.072
			c0.038,0.578,0.221,0.966,0.937,1.093c0.538,0.095,0.953,0.421,1.283,0.791c0.486,0.545,1.068,0.879,1.873,0.703
			c0.876-0.192,1.498-0.689,1.82-1.423c0.496-1.133,1.419-1.778,2.776-1.908c1.573-0.15,3.097-0.439,4.537-1.029
			c0.153-0.063,0.312-0.114,0.47-0.164c0.042-0.013,0.095-0.002,0.19-0.002c0.745,1.326,1.976,2.355,3.076,3.47
			c1.414,1.433,2.113,3.115,2.344,4.967c0.18,1.439,0.133,2.876-0.104,4.309c-0.343,2.078-0.594,4.165-0.467,6.267
			c0.047,0.778,0.191,1.559,0.37,2.322c0.156,0.665,0.464,1.295,1.009,1.805c0.338,0.317,0.339,0.631,0.165,1.041
			c-0.714,1.688-1.392,3.385-2.054,5.09c-0.344,0.887-0.489,1.805-0.45,2.75c0.032,0.801-0.265,1.551-0.644,2.262
			c-0.654,1.228-1.352,2.438-2.039,3.652c-0.301,0.531-0.581,1.057-0.637,1.672c-0.034,0.369-0.205,0.744-0.388,1.086
			c-0.988,1.838-1.927,3.699-3.03,5.483c-0.686,1.108-1.601,2.114-2.479,3.122c-0.389,0.445-0.936,0.788-1.424,1.165
			c-0.832,0.642-1.729,1.226-2.276,2.108c-0.569,0.918-0.332,1.35,0.863,1.418c1.707,0.096,3.374-0.153,5.002-0.584
			c0.805-0.213,1.14-0.789,0.665-1.377c-0.548-0.678-0.329-1.195,0.068-1.777c0.109-0.159,0.191-0.333,0.282-0.492
			c0.864,0.189,1.247,0.047,1.725-0.592c0.416-0.555,0.55-1.186,0.55-1.82c0.002-1.265,0.47-2.416,1.027-3.545
			c1.414-2.867,3.176-5.566,5.226-8.119c0.24-0.299,0.444-0.652,1.001-0.812c0.133,0.451,0.278,0.867,0.377,1.291
			c0.242,1.037,0.461,2.078,0.692,3.117c0.193,0.867,0.732,1.33,1.725,1.482c0.143,0.021,0.286,0.045,0.43,0.055
			c1.77,0.127,3.294,0.758,4.681,1.703c0.397,0.27,0.851,0.483,1.3,0.686c0.374,0.168,0.79,0.263,1.152-0.026
			c0.372-0.297,0.353-0.679,0.2-1.06c-0.112-0.278-0.249-0.551-0.39-0.82c-0.335-0.639-0.57-1.3-0.679-2
			c-0.109-0.699-0.501-0.973-1.289-0.878c-0.499,0.06-0.985,0.198-1.476,0.306c-0.211,0.045-0.417,0.107-0.63,0.139
			c-0.267,0.041-0.496-0.019-0.53-0.295c-0.054-0.453-0.387-0.68-0.796-0.91c-0.31-0.176-0.597-0.454-0.758-0.745
			c-0.724-1.315-1.429-2.64-2.079-3.983c-0.325-0.671-0.081-1.346,0.314-1.947c0.59-0.901,1.356-1.637,2.54-1.974
			c1.997-0.567,3.971-1.198,5.98-1.729c0.676-0.18,1.432-0.207,2.146-0.185c3.622,0.116,7.24,0.183,10.862-0.032
			c1.6-0.095,3.162-0.332,4.702-0.701c0.96-0.229,1.848-0.592,2.679-1.092c1.364-0.818,2.84-1.435,4.474-1.74
			c1.092-0.205,2.104-0.027,3.079,0.406c0.291,0.129,0.454,0.338,0.421,0.611c-0.037,0.312-0.083,0.641-0.229,0.921
			c-0.912,1.759-1.271,3.636-1.6,5.522c-0.044,0.252-0.114,0.502-0.124,0.755c-0.036,0.997-0.339,1.913-0.979,2.743
			c-0.105,0.136-0.196,0.306-0.208,0.466c-0.083,1.05-0.635,1.95-1.189,2.84c-1.055,1.696-2.299,3.284-3.752,4.739
			c-0.514,0.515-0.946,1.068-1.247,1.701c-0.12,0.254-0.271,0.496-0.396,0.748c-0.505,1.014-1.29,1.815-2.268,2.514
			c-0.782,0.557-1.487,1.203-2.181,1.848c-0.254,0.237-0.42,0.569-0.549,0.881c-0.204,0.495-0.011,0.908,0.466,1.229
			c0.745,0.501,1.665,0.551,2.51,0.108c0.808-0.424,1.409-1.039,1.89-1.728c0.489-0.701,0.973-1.422,0.937-2.3
			c-0.011-0.273,0.174-0.375,0.47-0.338c0.049,0.006,0.097,0.014,0.142,0.029c0.513,0.172,1.021,0.271,1.511-0.058
			c0.579-0.388,1.077-0.867,1.082-1.513c0.012-1.489,0.875-2.656,1.718-3.844c1.1-1.552,2.346-3.008,3.684-4.402
			c0.32-0.336,0.708-0.635,1.115-0.889c0.556-0.346,0.881-0.781,0.905-1.373c0.015-0.358,0.008-0.72-0.024-1.078
			c-0.162-1.762,0.527-3.33,1.42-4.854c0.051-0.086,0.147-0.151,0.266-0.267c0.559,0.996,1.215,1.896,2.117,2.598
			c1.928,1.499,2.998,3.462,3.948,5.482c0.324,0.69,0.424,1.476,0.535,2.229c0.169,1.133,0.278,2.271,0.372,3.41
			c0.029,0.354-0.05,0.717-0.12,1.07c-0.109,0.554-0.429,0.959-1.058,1.19c-0.954,0.353-1.595,1.034-2.091,1.792
			c-0.757,1.156-1.444,2.348-2.156,3.526c-0.066,0.11-0.122,0.233-0.147,0.356c-0.073,0.338,0.145,0.654,0.521,0.611
			c1.449-0.165,2.959-0.033,4.322-0.641c0.106-0.049,0.211-0.104,0.312-0.161c0.333-0.188,0.503-0.421,0.401-0.8
			c-0.121-0.446,0.007-0.883,0.219-1.297c0.218-0.426,0.458-0.842,0.658-1.272c0.112-0.241,0.302-0.313,0.562-0.306
			c0.41,0.012,0.82,0.045,1.23,0.043c0.658-0.002,0.946-0.295,0.681-0.807c-1.087-2.105-0.924-4.35-1.003-6.562
			c-0.069-1.947-0.061-3.896-0.061-5.846c0-0.892-0.285-1.613-1.074-2.248c-1.78-1.428-3.081-3.137-3.605-5.248
			c-0.128-0.512-0.156-1.002-0.022-1.506c0.219-0.826,0.415-1.654,0.652-2.475c0.068-0.238,0.209-0.477,0.377-0.673
			c1.132-1.324,2.182-2.692,3.056-4.163c0.056-0.094,0.114-0.187,0.185-0.273c1.68-2.047,1.825-4.273,0.971-6.599
			c-0.605-1.646-1.693-3.035-3.102-4.235c-0.134-0.114-0.312-0.188-0.4-0.347c1.068,0.257,1.904,0.797,2.585,1.515
			c1.146,1.209,1.903,2.605,2.342,4.117c0.521,1.805,0.983,3.625,1.433,5.445c0.387,1.561,0.922,3.072,1.766,4.49
			c1.812,3.053,4.694,4.451,8.597,4.201c3.608-0.23,5.999-1.984,7.555-4.744c0.019-0.032,0.002-0.078,0.002-0.18
			c-0.14,0.063-0.264,0.104-0.365,0.17c-1.19,0.77-2.541,1.219-3.973,1.475c-1.313,0.234-2.455-0.205-3.545-0.838
			c3.128,0.812,5.594-0.348,7.865-2.016c0.971-0.713,1.749-2.159,1.76-3.143c-0.156,0.274-0.241,0.467-0.368,0.635
			C96.167,47.491,95.929,47.942,95.539,48.231z"/>
	</g>
</g>
</svg>